<svg width="36" height="36" viewBox="0 0 36 36" fill="none" xmlns="http://www.w3.org/2000/svg">
<g id="iOS / icon / 36 / user person">
<path id="&#244;&#128;&#137;&#169;" d="M18.1328 17.7695C20.9219 17.7695 23.1953 15.2852 23.1953 12.2617C23.1953 9.26172 20.9336 6.90625 18.1328 6.90625C15.3555 6.90625 13.0703 9.30859 13.0703 12.2852C13.082 15.2969 15.3438 17.7695 18.1328 17.7695ZM18.1328 16C16.4219 16 14.957 14.3594 14.957 12.2852C14.957 10.2461 16.3984 8.67578 18.1328 8.67578C19.8789 8.67578 21.3086 10.2227 21.3086 12.2617C21.3086 14.3359 19.8555 16 18.1328 16ZM10.7617 28.6094H25.4922C27.4375 28.6094 28.3633 28.0234 28.3633 26.7344C28.3633 23.6641 24.4844 19.2227 18.1328 19.2227C11.7695 19.2227 7.89062 23.6641 7.89062 26.7344C7.89062 28.0234 8.81641 28.6094 10.7617 28.6094ZM10.2109 26.8398C9.90625 26.8398 9.77734 26.7578 9.77734 26.5117C9.77734 24.5898 12.7539 20.9922 18.1328 20.9922C23.5 20.9922 26.4766 24.5898 26.4766 26.5117C26.4766 26.7578 26.3594 26.8398 26.0547 26.8398H10.2109Z" fill="#212121"/>
<path id="&#244;&#128;&#137;&#169;_2" d="M18.1328 17.7695C20.9219 17.7695 23.1953 15.2852 23.1953 12.2617C23.1953 9.26172 20.9336 6.90625 18.1328 6.90625C15.3555 6.90625 13.0703 9.30859 13.0703 12.2852C13.082 15.2969 15.3438 17.7695 18.1328 17.7695ZM18.1328 16C16.4219 16 14.957 14.3594 14.957 12.2852C14.957 10.2461 16.3984 8.67578 18.1328 8.67578C19.8789 8.67578 21.3086 10.2227 21.3086 12.2617C21.3086 14.3359 19.8555 16 18.1328 16ZM10.7617 28.6094H25.4922C27.4375 28.6094 28.3633 28.0234 28.3633 26.7344C28.3633 23.6641 24.4844 19.2227 18.1328 19.2227C11.7695 19.2227 7.89062 23.6641 7.89062 26.7344C7.89062 28.0234 8.81641 28.6094 10.7617 28.6094ZM10.2109 26.8398C9.90625 26.8398 9.77734 26.7578 9.77734 26.5117C9.77734 24.5898 12.7539 20.9922 18.1328 20.9922C23.5 20.9922 26.4766 24.5898 26.4766 26.5117C26.4766 26.7578 26.3594 26.8398 26.0547 26.8398H10.2109Z" fill="#212121"/>
<path id="&#244;&#128;&#137;&#169;_3" d="M18.1328 17.7695C20.9219 17.7695 23.1953 15.2852 23.1953 12.2617C23.1953 9.26172 20.9336 6.90625 18.1328 6.90625C15.3555 6.90625 13.0703 9.30859 13.0703 12.2852C13.082 15.2969 15.3438 17.7695 18.1328 17.7695ZM18.1328 16C16.4219 16 14.957 14.3594 14.957 12.2852C14.957 10.2461 16.3984 8.67578 18.1328 8.67578C19.8789 8.67578 21.3086 10.2227 21.3086 12.2617C21.3086 14.3359 19.8555 16 18.1328 16ZM10.7617 28.6094H25.4922C27.4375 28.6094 28.3633 28.0234 28.3633 26.7344C28.3633 23.6641 24.4844 19.2227 18.1328 19.2227C11.7695 19.2227 7.89062 23.6641 7.89062 26.7344C7.89062 28.0234 8.81641 28.6094 10.7617 28.6094ZM10.2109 26.8398C9.90625 26.8398 9.77734 26.7578 9.77734 26.5117C9.77734 24.5898 12.7539 20.9922 18.1328 20.9922C23.5 20.9922 26.4766 24.5898 26.4766 26.5117C26.4766 26.7578 26.3594 26.8398 26.0547 26.8398H10.2109Z" fill="#212121"/>
</g>
</svg>
