<svg width="36" height="36" viewBox="0 0 36 36" fill="none" xmlns="http://www.w3.org/2000/svg">
<g id="iOS / icon / 36 / settings cog">
<path id="&#244;&#128;&#163;&#139;" d="M16.3555 30.0859H18.7227C19.625 30.0859 20.3164 29.5352 20.5273 28.668L21.0312 26.4766L21.4062 26.3477L23.3164 27.5195C24.0781 28 24.957 27.8828 25.6016 27.2383L27.2422 25.6094C27.8867 24.9648 28.0039 24.0742 27.5234 23.3242L26.3281 21.4258L26.4688 21.0742L28.6602 20.5586C29.5156 20.3477 30.0781 19.6445 30.0781 18.7539V16.4336C30.0781 15.543 29.5273 14.8398 28.6602 14.6289L26.4922 14.1016L26.3398 13.7266L27.5352 11.8281C28.0156 11.0781 27.8984 10.1992 27.2539 9.54297L25.6133 7.90234C24.9805 7.26953 24.1016 7.15234 23.3398 7.62109L21.4297 8.79297L21.0312 8.64062L20.5273 6.44922C20.3164 5.58203 19.625 5.03125 18.7227 5.03125H16.3555C15.4531 5.03125 14.7617 5.58203 14.5508 6.44922L14.0352 8.64062L13.6367 8.79297L11.7383 7.62109C10.9766 7.15234 10.0859 7.26953 9.45312 7.90234L7.82422 9.54297C7.17969 10.1992 7.05078 11.0781 7.54297 11.8281L8.72656 13.7266L8.58594 14.1016L6.41797 14.6289C5.55078 14.8398 5 15.543 5 16.4336V18.7539C5 19.6445 5.5625 20.3477 6.41797 20.5586L8.60938 21.0742L8.73828 21.4258L7.55469 23.3242C7.0625 24.0742 7.19141 24.9648 7.83594 25.6094L9.46484 27.2383C10.1094 27.8828 11 28 11.7617 27.5195L13.6602 26.3477L14.0352 26.4766L14.5508 28.668C14.7617 29.5352 15.4531 30.0859 16.3555 30.0859ZM16.543 28.2578C16.3438 28.2578 16.2383 28.1758 16.2031 27.9883L15.5 25.082C14.7852 24.9062 14.1172 24.625 13.6133 24.3086L11.0586 25.8789C10.918 25.9844 10.7656 25.9609 10.625 25.8203L9.24219 24.4375C9.11328 24.3086 9.10156 24.168 9.19531 24.0039L10.7656 21.4727C10.4961 20.9805 10.1914 20.3125 10.0039 19.5977L7.09766 18.9062C6.91016 18.8711 6.82812 18.7656 6.82812 18.5664V16.6094C6.82812 16.3984 6.89844 16.3047 7.09766 16.2695L9.99219 15.5664C10.1797 14.8047 10.5312 14.1133 10.7422 13.6797L9.18359 11.1484C9.07812 10.9727 9.08984 10.832 9.21875 10.6914L10.6133 9.33203C10.7539 9.19141 10.8828 9.16797 11.0586 9.27344L13.5898 10.8086C14.0938 10.5273 14.8086 10.2344 15.5117 10.0352L16.2031 7.12891C16.2383 6.94141 16.3438 6.85938 16.543 6.85938H18.5352C18.7344 6.85938 18.8398 6.94141 18.8633 7.12891L19.5781 10.0586C20.3047 10.2461 20.9375 10.5391 21.4648 10.8203L24.0078 9.27344C24.1953 9.16797 24.3125 9.19141 24.4648 9.33203L25.8477 10.6914C25.9883 10.832 25.9883 10.9727 25.8828 11.1484L24.3242 13.6797C24.5469 14.1133 24.8867 14.8047 25.0742 15.5664L27.9805 16.2695C28.168 16.3047 28.25 16.3984 28.25 16.6094V18.5664C28.25 18.7656 28.1562 18.8711 27.9805 18.9062L25.0625 19.5977C24.875 20.3125 24.582 20.9805 24.3008 21.4727L25.8711 24.0039C25.9648 24.168 25.9648 24.3086 25.8242 24.4375L24.4531 25.8203C24.3008 25.9609 24.1602 25.9844 24.0078 25.8789L21.4531 24.3086C20.9492 24.625 20.293 24.9062 19.5781 25.082L18.8633 27.9883C18.8398 28.1758 18.7344 28.2578 18.5352 28.2578H16.543ZM17.5391 22.0352C19.9883 22.0352 22.0039 20.0195 22.0039 17.5586C22.0039 15.1211 19.9883 13.1055 17.5391 13.1055C15.0898 13.1055 13.0625 15.1211 13.0625 17.5586C13.0625 20.0078 15.0781 22.0352 17.5391 22.0352ZM17.5391 20.2188C16.0859 20.2188 14.8906 19.0234 14.8906 17.5586C14.8906 16.1172 16.0859 14.9219 17.5391 14.9219C18.9688 14.9219 20.1641 16.1172 20.1641 17.5586C20.1641 19.0117 18.9688 20.2188 17.5391 20.2188Z" fill="#212121"/>
</g>
</svg>
