<svg width="262" height="254" viewBox="0 0 262 254" fill="none" xmlns="http://www.w3.org/2000/svg">
<path d="M226.161 97.275C225.614 97.275 225.067 97.2933 224.539 97.3116C222.634 97.4216 220.918 96.3588 220.258 94.6181C219.07 91.5214 217.712 88.498 216.204 85.5662C215.355 83.9354 215.695 81.9748 217.071 80.7287C245.452 54.8008 202.57 14.3056 176.716 42.524C175.49 43.8616 173.491 44.338 171.812 43.5684C168.927 42.2491 165.967 41.0764 162.912 40.0503C161.158 39.464 160.007 37.8515 160.064 36.0558C161.328 -1.36108 102.416 -1.34276 103.679 36.0558C103.736 37.8148 102.661 39.4456 100.945 40.0137C98.2292 40.9298 95.5702 41.956 92.9679 43.1103C91.2518 43.8616 89.2152 43.3486 88.046 41.901C62.7199 11.154 17.0839 53.1151 47.2942 79.3728C48.7085 80.6005 49.1422 82.5977 48.2559 84.2285C46.389 87.6917 44.7484 91.2832 43.3529 95.0028C42.7117 96.7253 40.8825 97.7514 38.9967 97.5682C-1.52878 93.427 -2.75454 154.646 37.903 152.081C39.7887 151.953 41.5614 153.052 42.146 154.793C43.4849 158.806 45.0878 162.69 46.9547 166.428C47.7468 168.004 47.445 169.891 46.1627 171.119C19.4223 196.644 59.8346 235.857 86.0659 209.892C87.3294 208.646 89.2529 208.353 90.8746 209.122C94.0993 210.643 97.4183 211.981 100.832 213.135C102.585 213.722 103.736 215.334 103.679 217.13C102.416 254.547 161.328 254.528 160.064 217.13C160.007 215.334 161.158 213.722 162.912 213.135C166.325 211.981 169.644 210.625 172.869 209.122C174.49 208.353 176.433 208.646 177.677 209.892C203.946 235.893 244.302 196.626 217.58 171.137C216.298 169.91 215.996 168.022 216.788 166.447C218.618 162.764 220.202 158.934 221.522 155.013C222.087 153.309 223.804 152.191 225.652 152.228C262.047 152.887 264.65 98.2461 226.161 97.275ZM132.814 166.905C77.3158 166.667 77.3347 84.6683 132.814 84.4484C188.313 84.6866 188.294 166.685 132.814 166.905Z" stroke="black" stroke-width="16" stroke-miterlimit="10"/>
</svg>
