<svg width="335" height="324" viewBox="0 0 335 324" fill="none" xmlns="http://www.w3.org/2000/svg">
<path d="M287.418 124.918C286.727 124.918 286.037 124.941 285.37 124.964C282.966 125.103 280.799 123.759 279.966 121.557C278.466 117.641 276.752 113.816 274.848 110.108C273.776 108.046 274.205 105.566 275.943 103.99C311.772 71.1952 257.635 19.9755 224.995 55.6671C223.448 57.3589 220.924 57.9615 218.805 56.9881C215.163 55.3194 211.425 53.8361 207.569 52.5383C205.354 51.7966 203.902 49.7571 203.974 47.4858C205.569 0.159801 131.195 0.182977 132.79 47.4858C132.862 49.7108 131.505 51.7735 129.338 52.4919C125.91 53.6507 122.553 54.9486 119.268 56.4087C117.101 57.3589 114.53 56.71 113.054 54.8791C81.0813 15.9892 23.468 69.063 61.607 102.275C63.3926 103.827 63.9401 106.354 62.8212 108.416C60.4643 112.797 58.3931 117.339 56.6313 122.044C55.8219 124.223 53.5126 125.52 51.1319 125.289C-0.0296383 120.051 -1.5771 197.483 49.7511 194.238C52.1318 194.076 54.3697 195.467 55.1077 197.668C56.798 202.744 58.8216 207.657 61.1785 212.385C62.1784 214.378 61.7975 216.766 60.1786 218.318C26.4201 250.603 77.4388 300.2 110.554 267.36C112.15 265.784 114.578 265.413 116.625 266.386C120.696 268.31 124.886 270.002 129.195 271.462C131.41 272.203 132.862 274.243 132.79 276.514C131.195 323.84 205.569 323.817 203.974 276.514C203.902 274.243 205.354 272.203 207.569 271.462C211.878 270.002 216.068 268.287 220.139 266.386C222.186 265.413 224.638 265.784 226.21 267.36C259.373 300.247 310.32 250.58 276.585 218.342C274.967 216.789 274.586 214.402 275.586 212.408C277.895 207.75 279.895 202.906 281.561 197.946C282.275 195.791 284.442 194.377 286.775 194.424C332.723 195.258 336.008 126.146 287.418 124.918ZM169.572 212.988C99.508 212.687 99.5318 108.973 169.572 108.694C239.637 108.996 239.613 212.71 169.572 212.988Z" stroke="black" stroke-width="24" stroke-miterlimit="10"/>
</svg>
