<?xml version="1.0" encoding="UTF-8"?>
<svg id="Layer_2" data-name="Layer 2" xmlns="http://www.w3.org/2000/svg" version="1.1" viewBox="0 0 600 600">
  <defs>
    <style>
      .cls-1 {
        fill: #000;
      }

      .cls-1, .cls-2 {
        stroke-width: 0px;
      }

      .cls-2 {
        fill: #eca57d;
      }
    </style>
  </defs>
  <path class="cls-2" d="M423.66,464.92c-4.36,0-8.61-1.91-11.52-5.39l-114.86-137.57-108.82,130.34c-2.91,3.48-7.16,5.39-11.52,5.39-1.71,0-3.44-.29-5.11-.9-5.93-2.15-9.89-7.79-9.89-14.1l-.11-293.58c0-3.98,1.58-7.8,4.39-10.61,2.81-2.81,6.63-4.4,10.61-4.4h246.81c8.28,0,15,6.72,15,15v300.82c0,6.31-3.95,11.95-9.89,14.1-1.67.61-3.4.9-5.11.9Z"/>
  <path class="cls-1" d="M423.66,149.1v300.82l-126.37-151.37-120.33,144.13-.11-293.58h246.81M423.66,119.1h-246.81c-7.96,0-15.59,3.16-21.22,8.79-5.63,5.63-8.79,13.26-8.78,21.22l.11,293.58c0,12.62,7.91,23.89,19.78,28.19,3.34,1.21,6.8,1.8,10.21,1.8,8.73,0,17.22-3.81,23.04-10.77l97.3-116.55,103.34,123.78c5.81,6.96,14.31,10.77,23.04,10.77,3.42,0,6.88-.59,10.22-1.8,11.87-4.3,19.77-15.58,19.77-28.2V149.1c0-16.57-13.43-30-30-30h0Z"/>
</svg>