<?xml version="1.0" encoding="UTF-8"?>
<svg id="Layer_2" data-name="Layer 2" xmlns="http://www.w3.org/2000/svg" viewBox="0 0 28 28">
  <defs>
    <style>
      .cls-1 {
        fill: #212121;
        stroke-width: 0px;
      }

      .cls-2 {
        fill: #fff;
        stroke: #000;
      }
    </style>
  </defs>
  <circle class="cls-2" cx="14" cy="14" r="13.5"/>
  <path class="cls-1" d="M5.38,21.51c1.52,2.2,4.7,2.8,6.67,1.22,1.11-.89,1.65-2.11,1.53-3.34.78-.15,1.48-.61,2.23-1.44,2.62-2.81,6.61-9.1,6.97-9.63,1.03-1.54-.73-3.41-2.17-2.33-.48.37-6.34,4.66-8.95,7.5-.76.83-1.2,1.57-1.35,2.41-.59-.03-1.18.18-1.71.61-1.27,1.03-.82,2.5-1.53,3.07-.62.5-1.2.22-1.65.59-.33.28-.43.79-.04,1.35ZM21.23,7.23c.28-.22.59.1.38.42-.19.3-3.44,5.41-5.95,8.41-.38-1.07-1.26-2.03-2.24-2.43,2.81-2.69,7.5-6.15,7.81-6.4ZM12.85,17.5c-.38-.54-.81-.96-1.26-1.22.07-.55.35-1.1.91-1.7.97.12,2.18,1.42,2.3,2.48-.61.63-1.09.9-1.62.97-.09-.18-.2-.35-.32-.53ZM7.04,21.37c-.11-.12-.1-.25-.02-.32.11-.11.57-.15.92-.53.79-.84.52-2.08,1.44-2.84.76-.65,1.81-.41,2.52.57.8,1.11.52,2.48-.58,3.39-1.23,1.04-3.13,1.04-4.27-.26Z"/>
</svg>