<svg width="40" height="36" viewBox="0 0 40 36" fill="none" xmlns="http://www.w3.org/2000/svg">
<path d="M17.8548 4.34097C17.4648 3.3808 16.4873 2.72074 15.3654 2.6742C11.3136 2.50606 8.86898 2.55111 5.61791 2.7598C4.2596 2.847 3.17961 3.82311 3.02418 5.0565C2.07269 12.6072 1.75703 20.1842 2.74819 27.7522C3.08454 30.3203 5.39087 32.1869 8.15001 32.4607C15.941 33.2342 23.6199 33.2144 31.4103 32.4412C34.1178 32.1725 36.2911 30.2177 36.614 27.7522C37.2266 23.0749 37.3899 18.2803 37.0086 12.3991C36.8504 9.96263 34.7549 8.00189 32.0872 7.8005C28.2953 7.5143 25.6598 7.49789 20.9995 7.40799C19.8446 7.3857 18.8213 6.72055 18.4202 5.73291L17.8548 4.34097Z" stroke="black" stroke-width="2" stroke-linejoin="round"/>
<path d="M19.549 28.9818L19.552 28.9838C19.6541 29.0522 19.7791 29.124 19.9071 29.1797C20.0299 29.2331 20.1793 29.2823 20.3226 29.2823C20.4659 29.2823 20.6152 29.2331 20.7383 29.1801C20.8669 29.1247 20.993 29.0535 21.0975 28.9867L21.0976 28.9869L21.1051 28.9817C26.0595 25.5549 29.2823 21.5143 29.2823 17.3435C29.2823 13.8786 27.0688 11.3629 24.0591 11.3629C22.4801 11.3629 21.1759 12.1126 20.3237 13.2804C19.482 12.1189 18.1631 11.3629 16.5861 11.3629C13.5764 11.3629 11.3629 13.8786 11.3629 17.3435C11.3629 21.5144 14.5858 25.555 19.549 28.9818ZM19.511 15.3266L19.5109 15.3266L19.5141 15.3316C19.6363 15.5275 19.7513 15.6787 19.8794 15.7798C20.0203 15.8909 20.1659 15.9331 20.3226 15.9331C20.4859 15.9331 20.6274 15.8845 20.763 15.7732C20.8839 15.6739 20.9974 15.5265 21.125 15.3409L21.1251 15.3409L21.1286 15.3356C21.7275 14.4155 22.5744 13.3904 24.0766 13.3904C25.0208 13.3904 25.8376 13.7782 26.4218 14.4584C27.008 15.1409 27.3701 16.1308 27.3701 17.3435C27.3701 19.0297 26.5444 20.8099 25.2399 22.5116C23.9385 24.2093 22.1797 25.8035 20.3608 27.1121L20.3607 27.112L20.3559 27.1157C20.345 27.1239 20.3351 27.1314 20.3258 27.1385C20.3201 27.1338 20.3143 27.1289 20.3081 27.1237L20.3008 27.1175L20.2929 27.1119C18.4697 25.8034 16.7088 24.2092 15.4063 22.5115C14.1008 20.8098 13.2751 19.0296 13.2751 17.3435C13.2751 16.1308 13.6372 15.1409 14.2234 14.4584C14.8076 13.7782 15.6243 13.3904 16.5686 13.3904C18.0824 13.3904 18.9642 14.4024 19.511 15.3266Z" fill="#212121" stroke="black" stroke-width="0.5"/>
</svg>
