<svg width="259" height="287" viewBox="0 0 259 287" fill="none" xmlns="http://www.w3.org/2000/svg">
<path d="M237.576 282.649C241.801 287.755 249.365 288.471 254.472 284.246C259.578 280.022 260.293 272.458 256.069 267.351L237.576 282.649ZM165.715 53.3756C193.803 87.3303 189.048 137.626 155.093 165.715L170.391 184.207C214.559 147.67 220.745 82.2457 184.207 38.0778L165.715 53.3756ZM155.093 165.715C121.139 193.803 70.8426 189.048 42.754 155.093L24.2614 170.391C60.7987 214.559 126.223 220.745 170.391 184.207L155.093 165.715ZM42.754 155.093C14.6655 121.139 19.4209 70.8426 53.3756 42.7541L38.0778 24.2615C-6.09008 60.7987 -12.2759 126.223 24.2614 170.391L42.754 155.093ZM53.3756 42.7541C87.3302 14.6655 137.626 19.421 165.715 53.3756L184.207 38.0778C147.67 -6.09004 82.2457 -12.2758 38.0778 24.2615L53.3756 42.7541ZM256.069 267.351L176.53 171.2L158.037 186.498L237.576 282.649L256.069 267.351Z" fill="black"/>
</svg>
