<svg width="318" height="304" viewBox="0 0 318 304" fill="none" xmlns="http://www.w3.org/2000/svg">
<path d="M276.238 94.5154H277C293.016 94.5154 306 107.499 306 123.515V263C306 279.016 293.016 292 277 292H41C24.9837 292 12 279.016 12 263V77.942C12 61.9258 24.9837 48.942 41 48.942H45.1268M276.238 94.5154H143.624C133.278 94.5154 123.716 89.0036 118.53 80.051L108.889 63.4065C103.703 54.4539 94.1408 48.942 83.7948 48.942H45.1268M276.238 94.5154V41C276.238 24.9838 263.254 12 247.238 12H74.1268C58.1105 12 45.1268 24.9837 45.1268 41V48.942" stroke="black" stroke-width="24"/>
</svg>
