<svg width="270" height="223" viewBox="0 0 270 223" fill="none" xmlns="http://www.w3.org/2000/svg">
<path fill-rule="evenodd" clip-rule="evenodd" d="M59 0C43.4889 0 31 12.6742 31 28.0909H47C47 21.4162 52.4197 16 59 16H212C218.627 16 224 21.3726 224 28V55.9314H120.039C115 55.9314 110.498 52.7838 108.769 48.0515L108.526 47.3866C104.489 36.3445 93.9843 29 82.2276 29H28C12.536 29 0 41.536 0 57V63.9314V195C0 210.464 12.536 223 28 223H242C257.464 223 270 210.464 270 195V83.9315C270 68.4675 257.464 55.9314 242 55.9314H240V28C240 12.536 227.464 0 212 0H59ZM16 57C16 50.3726 21.3726 45 28 45H82.2276C87.2662 45 91.7682 48.1476 93.4981 52.88L93.7411 53.5448C97.7777 64.587 108.282 71.9314 120.039 71.9314H242C248.627 71.9314 254 77.304 254 83.9315V195C254 201.627 248.627 207 242 207H28C21.3726 207 16 201.627 16 195V63.9314V57Z" fill="black"/>
</svg>
