<svg width="183" height="268" viewBox="0 0 183 268" fill="none" xmlns="http://www.w3.org/2000/svg">
<path fill-rule="evenodd" clip-rule="evenodd" d="M57.098 48.3661C57.098 30.7805 72.0083 16 91.0609 16C110.114 16 125.024 30.7805 125.024 48.3661C125.024 65.9517 110.114 80.7322 91.0609 80.7322C72.0083 80.7322 57.098 65.9517 57.098 48.3661ZM91.0609 0C63.7625 0 41.098 21.3645 41.098 48.3661C41.098 70.3091 56.066 88.5294 76.325 94.5861C56.0115 100.48 38.259 118.342 25.1645 143.419C9.86653 172.715 1.06156 211.287 0.00560219 251.528C-0.231959 260.582 7.1181 267.737 15.898 267.737H91.0609H166.224C175.004 267.737 182.354 260.582 182.116 251.528C181.06 211.287 172.255 172.715 156.957 143.419C143.863 118.342 126.11 100.48 105.797 94.5861C126.056 88.5294 141.024 70.3091 141.024 48.3661C141.024 21.3645 118.359 0 91.0609 0ZM39.3473 150.825C54.364 122.067 73.3868 108.475 91.061 108.475C108.735 108.475 127.758 122.067 142.775 150.825C156.669 177.433 165.083 213.405 166.116 251.737H91.0609L16.0057 251.737C17.0388 213.405 25.4532 177.433 39.3473 150.825Z" fill="black"/>
</svg>
