<svg width="213" height="300" viewBox="0 0 213 300" fill="none" xmlns="http://www.w3.org/2000/svg">
<path d="M41.3335 163.947C59.0601 130.596 80.9609 114.015 101.468 111.868C102.815 111.956 104.175 112 105.544 112C107.114 112 108.67 111.942 110.21 111.827C130.835 113.794 152.91 130.374 170.755 163.947C187.329 195.13 197.812 236.771 200.08 281.613C200.243 284.835 197.58 288 193.544 288L18.5442 288C14.5082 288 11.845 284.835 12.0081 281.613C14.2767 236.771 24.7594 195.13 41.3335 163.947ZM143.544 50C143.544 69.4759 128.893 85.5297 110.01 87.7403C108.695 87.6655 107.373 87.6278 106.044 87.6278C104.498 87.6278 102.96 87.6789 101.432 87.7801C82.3791 85.7298 67.5442 69.5973 67.5442 50C67.5442 29.0132 84.5573 12 105.544 12C126.531 12 143.544 29.0132 143.544 50Z" stroke="black" stroke-width="24"/>
</svg>
