<svg width="262" height="324" viewBox="0 0 262 324" fill="none" xmlns="http://www.w3.org/2000/svg">
<path d="M184.018 262.852C184.018 263.005 183.986 263.128 183.955 263.281C179.506 290.963 157.232 312 130.447 312C103.661 312 81.3865 290.963 76.9379 263.281C76.9066 263.128 76.8753 263.005 76.8753 262.852H184.018Z" stroke="black" stroke-width="24" stroke-miterlimit="10"/>
<path d="M230.187 263.039H164.886C164.906 262.942 164.926 262.865 164.926 262.768H95.828C95.828 262.865 95.8481 262.942 95.8683 263.039H31.0916C15.9676 263.039 6.86086 248.173 15.1195 236.931L22.106 227.395C39.5723 203.633 46.0944 174.947 41.0666 146.959C32.9897 101.953 57.3011 52.4315 101.421 36.7318L108.085 25.083C118.06 7.63899 142.997 7.63899 152.992 25.083L159.272 36.0534C204.907 51.0165 230.006 101.721 221.545 147.54C216.295 175.877 222.635 204.951 240.304 229.004L246.119 236.951C254.418 248.173 245.311 263.039 230.187 263.039Z" stroke="black" stroke-width="24" stroke-miterlimit="10"/>
<path d="M164.946 262.788C164.946 262.884 164.926 262.962 164.906 263.059H95.9087C95.8885 262.962 95.8683 262.884 95.8683 262.788H164.946Z" stroke="black" stroke-width="24" stroke-miterlimit="10"/>
</svg>
