<svg width="218" height="256" viewBox="0 0 218 256" fill="none" xmlns="http://www.w3.org/2000/svg">
<path d="M138.215 221.515C138.215 221.597 138.198 221.663 138.18 221.746C135.739 236.663 123.516 248 108.818 248C94.1194 248 81.8964 236.663 79.4552 221.746C79.438 221.663 79.4208 221.597 79.4208 221.515H138.215Z" stroke="black" stroke-width="16" stroke-miterlimit="10"/>
<path d="M193.76 221.729H138.163C138.181 221.647 138.198 221.581 138.198 221.498H79.3693C79.3693 221.581 79.3864 221.647 79.4036 221.729H24.2541C11.3779 221.729 3.62465 209.073 10.6559 199.502L16.6041 191.383C31.4745 171.152 37.0272 146.729 32.7466 122.901C25.8701 84.5841 46.5684 42.4224 84.1312 29.0561L89.8044 19.1386C98.2968 4.28713 119.528 4.28713 128.038 19.1386L133.384 28.4785C172.236 41.2178 193.605 84.3861 186.402 123.396C181.932 147.521 187.33 172.274 202.373 192.752L207.324 199.518C214.389 209.073 206.636 221.729 193.76 221.729Z" stroke="black" stroke-width="16" stroke-miterlimit="10"/>
<path d="M138.215 221.515C138.215 221.597 138.198 221.663 138.18 221.746H79.438C79.4208 221.663 79.4036 221.597 79.4036 221.515H138.215Z" stroke="black" stroke-width="16" stroke-miterlimit="10"/>
</svg>
