<svg width="260" height="270" viewBox="0 0 260 270" fill="none" xmlns="http://www.w3.org/2000/svg">
<path fill-rule="evenodd" clip-rule="evenodd" d="M135.687 18.4941L240.987 124.908C245.985 129.96 242.407 138.535 235.3 138.535H24.6998C17.593 138.535 14.0144 129.96 19.0134 124.908L124.313 18.4941C127.444 15.3301 132.556 15.3301 135.687 18.4941ZM112.94 7.24005C122.333 -2.25191 137.667 -2.25192 147.06 7.24004L252.36 113.654C267.356 128.809 256.621 154.535 235.3 154.535H232.313V242C232.313 257.464 219.777 270 204.313 270H53.8483C38.3843 270 25.8483 257.464 25.8483 242V154.535H24.6998C3.37897 154.535 -7.35631 128.809 7.64029 113.654L112.94 7.24005ZM41.8483 154.535V242C41.8483 248.627 47.2209 254 53.8483 254H204.313C210.94 254 216.313 248.627 216.313 242V154.535H41.8483Z" fill="black"/>
</svg>
