<svg width="35" height="36" viewBox="0 0 35 36" fill="none" xmlns="http://www.w3.org/2000/svg">
<g clip-path="url(#clip0_1222_37671)">
<path d="M12.5 31.4742L1.25 34.7142L4.4 23.1428L25 2.05713C25.2328 1.81221 25.511 1.6176 25.8178 1.48475C26.1248 1.35189 26.4545 1.28345 26.7875 1.28345C27.1205 1.28345 27.4503 1.35189 27.7573 1.48475C28.064 1.6176 28.3423 1.81221 28.575 2.05713L33 6.63427C33.2343 6.87331 33.4203 7.15773 33.5473 7.47106C33.6743 7.78441 33.7395 8.12053 33.7395 8.45998C33.7395 8.79943 33.6743 9.13555 33.5473 9.4489C33.4203 9.76225 33.2343 10.0467 33 10.2857L12.5 31.4742Z" stroke="black" stroke-width="3" stroke-linecap="round" stroke-linejoin="round"/>
</g>
<defs>
<clipPath id="clip0_1222_37671">
<rect width="35" height="36" fill="white"/>
</clipPath>
</defs>
</svg>
