<svg width="36" height="36" viewBox="0 0 36 36" fill="none" xmlns="http://www.w3.org/2000/svg">
<g id="iOS / icon / 36 / notification bell">
<path id="&#244;&#128;&#157;&#150;" d="M24.2148 14.4453C26.4297 14.4453 28.2812 12.6055 28.2812 10.3789C28.2812 8.15234 26.4297 6.3125 24.2148 6.3125C21.9766 6.3125 20.1484 8.15234 20.1484 10.3789C20.1484 12.6055 21.9766 14.4453 24.2148 14.4453ZM9.15625 26.375H20.957C20.8633 27.957 19.8555 28.9648 18.4375 28.9648C17.0312 28.9648 16.0117 27.957 15.9297 26.375H14.1016C14.1953 28.625 15.9648 30.6055 18.4375 30.6055C20.9219 30.6055 22.6914 28.625 22.7852 26.375H27.7305C28.832 26.375 29.5 25.8008 29.5 24.957C29.5 23.7852 28.3047 22.7305 27.2969 21.6875C26.5234 20.8789 26.3125 19.2148 26.2188 17.8672C26.207 17.082 26.1484 16.3672 26.0781 15.6758C25.5273 15.8633 24.8008 15.9688 24.2266 15.9336C24.2969 16.5547 24.3438 17.2344 24.3555 18.0078C24.4609 20.3047 24.8594 21.8047 25.6914 22.7422C26.3125 23.4336 27.0039 24.1133 27.2148 24.4648V24.6055H9.66016V24.4648C9.87109 24.1133 10.5742 23.4336 11.1836 22.7422C12.0273 21.8047 12.4258 20.3047 12.5312 18.0078C12.625 12.8984 14.1484 11.2578 16.1523 10.7188C16.4453 10.6484 16.6094 10.4961 16.6211 10.2031C16.6562 8.97266 17.3594 8.11719 18.4375 8.11719C18.6484 8.11719 18.8477 8.15234 19.0117 8.21094C19.2344 7.67188 19.5273 7.16797 19.9023 6.72266C19.4688 6.52344 18.9766 6.39453 18.4375 6.39453C16.7148 6.39453 15.4492 7.61328 15.0625 9.13672C11.9453 10.2617 10.75 13.25 10.668 17.8672C10.5742 19.2148 10.3633 20.8789 9.58984 21.6875C8.57031 22.7305 7.38672 23.7852 7.38672 24.957C7.38672 25.8008 8.04297 26.375 9.15625 26.375Z" fill="#212121"/>
</g>
</svg>
