<svg width="429" height="429" viewBox="0 0 429 429" fill="none" xmlns="http://www.w3.org/2000/svg">
<path d="M416 214.5C416 325.785 325.785 416 214.5 416C103.215 416 13 325.785 13 214.5C13 103.215 103.215 13 214.5 13C325.785 13 416 103.215 416 214.5Z" fill="white"/>
<path d="M214 115V315M114 215H314M416 214.5C416 325.785 325.785 416 214.5 416C103.215 416 13 325.785 13 214.5C13 103.215 103.215 13 214.5 13C325.785 13 416 103.215 416 214.5Z" stroke="black" stroke-width="25" stroke-linecap="round"/>
</svg>
