<svg width="289" height="226" viewBox="0 0 289 226" fill="none" xmlns="http://www.w3.org/2000/svg">
<mask id="path-1-inside-1_2_72" fill="white">
<path fill-rule="evenodd" clip-rule="evenodd" d="M267.446 153.888C281.112 138.482 289 120.316 289 100.864C289 45.1585 224.305 0 144.5 0C64.6949 0 0 45.1585 0 100.864C0 156.57 64.6949 201.728 144.5 201.728C162.66 201.728 180.038 199.39 196.049 195.121L258.125 224.637C269.532 230.061 281.651 218.358 278.664 204.802L267.446 153.888Z"/>
</mask>
<path d="M267.446 153.888L253.98 141.943L247.894 148.804L249.868 157.761L267.446 153.888ZM196.049 195.121L203.778 178.865L197.804 176.024L191.412 177.729L196.049 195.121ZM258.125 224.637L250.395 240.893L250.395 240.893L258.125 224.637ZM278.664 204.802L296.243 200.929L296.243 200.929L278.664 204.802ZM271 100.864C271 115.19 265.244 129.245 253.98 141.943L280.912 165.832C296.979 147.719 307 125.442 307 100.864H271ZM144.5 18C181.173 18 213.6 28.4052 236.374 44.3023C259.209 60.2415 271 80.5202 271 100.864H307C307 65.5024 286.444 35.3491 256.98 14.7826C227.455 -5.82598 187.632 -18 144.5 -18V18ZM18 100.864C18 80.5202 29.791 60.2415 52.6258 44.3023C75.4003 28.4052 107.827 18 144.5 18V-18C101.368 -18 61.5446 -5.82598 32.0203 14.7826C2.55639 35.3491 -18 65.5024 -18 100.864H18ZM144.5 183.728C107.827 183.728 75.4003 173.323 52.6258 157.426C29.791 141.487 18 121.208 18 100.864H-18C-18 136.226 2.55639 166.379 32.0203 186.946C61.5446 207.554 101.368 219.728 144.5 219.728V183.728ZM191.412 177.729C176.942 181.587 161.124 183.728 144.5 183.728V219.728C164.196 219.728 183.134 217.193 200.686 212.514L191.412 177.729ZM265.854 208.381L203.778 178.865L188.319 211.377L250.395 240.893L265.854 208.381ZM261.086 208.675C261.208 209.229 260.958 209.208 261.289 208.889C261.472 208.712 262.004 208.291 262.989 208.091C264.098 207.867 265.17 208.056 265.854 208.381L250.395 240.893C263.848 247.29 277.638 243.146 286.296 234.785C294.791 226.582 299.108 213.931 296.243 200.929L261.086 208.675ZM249.868 157.761L261.086 208.675L296.243 200.929L285.024 150.014L249.868 157.761Z" fill="black" mask="url(#path-1-inside-1_2_72)"/>
</svg>
