<svg width="33" height="34" viewBox="0 0 33 34" fill="none" xmlns="http://www.w3.org/2000/svg">
<path d="M2.35718 8.5H30.6429" stroke="black" stroke-width="3" stroke-linecap="round" stroke-linejoin="round"/>
<path d="M5.89294 8.5H27.1072V30.3571C27.1072 31.0012 26.8588 31.619 26.4168 32.0744C25.9749 32.5297 25.3752 32.7857 24.7501 32.7857H8.25009C7.62493 32.7857 7.02539 32.5297 6.58333 32.0744C6.14129 31.619 5.89294 31.0012 5.89294 30.3571V8.5Z" stroke="black" stroke-width="3" stroke-linecap="round" stroke-linejoin="round"/>
<path d="M10.6072 8.50007V7.28578C10.6072 5.67554 11.228 4.13124 12.3331 2.99263C13.4383 1.85402 14.9372 1.21436 16.5 1.21436C18.0629 1.21436 19.5618 1.85402 20.6669 2.99263C21.772 4.13124 22.3929 5.67554 22.3929 7.28578V8.50007" stroke="black" stroke-width="3" stroke-linecap="round" stroke-linejoin="round"/>
<path d="M12.9644 15.7893V25.5073" stroke="black" stroke-width="3" stroke-linecap="round" stroke-linejoin="round"/>
<path d="M20.0358 15.7893V25.5073" stroke="black" stroke-width="3" stroke-linecap="round" stroke-linejoin="round"/>
</svg>
