<svg width="41" height="42" viewBox="0 0 41 42" fill="none" xmlns="http://www.w3.org/2000/svg">
<path d="M21.3009 41.0312H24.6991C25.9944 41.0312 26.9869 40.2399 27.2897 38.9938L28.0131 35.8451L28.5514 35.6599L31.2935 37.3437C32.3869 38.0341 33.6486 37.8657 34.5738 36.9396L36.929 34.5991C37.8542 33.673 38.0224 32.3933 37.3327 31.3156L35.6168 28.5878L35.8187 28.0827L38.9645 27.3418C40.1925 27.0387 41 26.0284 41 24.7487V21.4148C41 20.1351 40.2093 19.1248 38.9645 18.8217L35.8523 18.064L35.6336 17.5252L37.3495 14.7974C38.0392 13.7197 37.871 12.4569 36.9458 11.5139L34.5907 9.1566C33.6822 8.24734 32.4206 8.07896 31.3271 8.75248L28.585 10.4363L28.0131 10.2174L27.2897 7.06867C26.9869 5.82264 25.9944 5.03125 24.6991 5.03125H21.3009C20.0056 5.03125 19.0131 5.82264 18.7103 7.06867L17.9701 10.2174L17.3981 10.4363L14.6729 8.75248C13.5794 8.07896 12.3009 8.24734 11.3925 9.1566L9.05421 11.5139C8.12897 12.4569 7.94393 13.7197 8.65047 14.7974L10.3495 17.5252L10.1477 18.064L7.03551 18.8217C5.79065 19.1248 5 20.1351 5 21.4148V24.7487C5 26.0284 5.80748 27.0387 7.03551 27.3418L10.1813 28.0827L10.3664 28.5878L8.66729 31.3156C7.96075 32.3933 8.14579 33.673 9.07103 34.5991L11.4093 36.9396C12.3346 37.8657 13.6131 38.0341 14.7065 37.3437L17.4318 35.6599L17.9701 35.8451L18.7103 38.9938C19.0131 40.2399 20.0056 41.0312 21.3009 41.0312ZM21.5701 38.4045C21.2841 38.4045 21.1327 38.2866 21.0822 38.0172L20.0729 33.8414C19.0467 33.5888 18.0878 33.1847 17.3645 32.73L13.6972 34.9863C13.4953 35.1379 13.2766 35.1042 13.0748 34.9022L11.0897 32.9153C10.9047 32.73 10.8879 32.528 11.0224 32.2922L13.2766 28.6552C12.8897 27.948 12.4523 26.9882 12.1832 25.9611L8.01121 24.9676C7.74206 24.9171 7.6243 24.7656 7.6243 24.4793V21.6674C7.6243 21.3643 7.72523 21.2296 8.01121 21.1791L12.1664 20.1688C12.4355 19.0743 12.9402 18.0808 13.243 17.4578L11.0056 13.8208C10.8542 13.5682 10.871 13.3661 11.0561 13.1641L13.0579 11.2109C13.2598 11.0088 13.4449 10.9751 13.6972 11.1267L17.3308 13.3325C18.0542 12.9283 19.0804 12.5074 20.0897 12.2211L21.0822 8.04528C21.1327 7.77587 21.2841 7.658 21.5701 7.658H24.4299C24.7159 7.658 24.8673 7.77587 24.9009 8.04528L25.9271 12.2548C26.9701 12.5242 27.8785 12.9452 28.6355 13.3493L32.286 11.1267C32.5551 10.9751 32.7234 11.0088 32.9421 11.2109L34.9271 13.1641C35.129 13.3661 35.129 13.5682 34.9776 13.8208L32.7402 17.4578C33.0598 18.0808 33.5477 19.0743 33.8168 20.1688L37.9888 21.1791C38.2579 21.2296 38.3757 21.3643 38.3757 21.6674V24.4793C38.3757 24.7656 38.2411 24.9171 37.9888 24.9676L33.8 25.9611C33.5308 26.9882 33.1103 27.948 32.7065 28.6552L34.9607 32.2922C35.0953 32.528 35.0953 32.73 34.8935 32.9153L32.9252 34.9022C32.7065 35.1042 32.5047 35.1379 32.286 34.9863L28.6187 32.73C27.8953 33.1847 26.9533 33.5888 25.9271 33.8414L24.9009 38.0172C24.8673 38.2866 24.7159 38.4045 24.4299 38.4045H21.5701ZM23 29.4634C26.5159 29.4634 29.4093 26.5673 29.4093 23.0312C29.4093 19.5289 26.5159 16.6327 23 16.6327C19.4841 16.6327 16.5738 19.5289 16.5738 23.0312C16.5738 26.5504 19.4673 29.4634 23 29.4634ZM23 26.8535C20.914 26.8535 19.1981 25.136 19.1981 23.0312C19.1981 20.9602 20.914 19.2427 23 19.2427C25.0523 19.2427 26.7682 20.9602 26.7682 23.0312C26.7682 25.1192 25.0523 26.8535 23 26.8535Z" fill="#212121"/>
</svg>
