<svg width="236" height="225" viewBox="0 0 236 225" fill="none" xmlns="http://www.w3.org/2000/svg">
<path d="M127.636 16.72L141.833 59.8935C145.813 71.9976 157.115 80.1783 169.857 80.1783H215.285C225.487 80.1783 229.696 93.2584 221.408 99.208L185.07 125.295C174.606 132.807 170.226 146.238 174.25 158.474L188.227 200.979C191.401 210.631 180.382 218.714 172.129 212.789L134.865 186.037C124.584 178.656 110.739 178.656 100.458 186.037L63.1941 212.789C54.9405 218.714 43.9223 210.631 47.0962 200.979L61.0732 158.474C65.0968 146.238 60.7166 132.807 50.2532 125.295L13.9148 99.208C5.62724 93.2584 9.83613 80.1783 20.0382 80.1783H65.4662C78.2079 80.1783 89.5097 71.9976 93.49 59.8935L107.687 16.72C110.852 7.09333 124.47 7.09332 127.636 16.72Z" stroke="black" stroke-width="19"/>
</svg>
