<svg width="315" height="300" viewBox="0 0 315 300" fill="none" xmlns="http://www.w3.org/2000/svg">
<path d="M171.272 22.137L190.249 79.8685C195.474 95.7638 210.312 106.511 227.045 106.511H287.768C302.074 106.511 307.998 124.874 296.358 133.233L247.785 168.117C234.047 177.983 228.298 195.623 233.58 211.691L252.263 268.528C256.723 282.096 241.245 293.421 229.676 285.113L179.866 249.342C166.366 239.646 148.186 239.646 134.686 249.342L84.876 285.113C73.3077 293.421 57.8296 282.096 62.2895 268.528L80.9724 211.691C86.2539 195.623 80.5052 177.983 66.767 168.117L18.1941 133.233C6.55417 124.874 12.4786 106.511 26.7847 106.511H87.5076C104.241 106.511 119.078 95.7638 124.303 79.8685L143.28 22.137C147.723 8.62102 166.829 8.62101 171.272 22.137Z" stroke="black" stroke-width="24"/>
</svg>
